<svg xmlns="http://www.w3.org/2000/svg" width="100" height="100" viewBox="0 0 100 100">
<defs>
<mask id="kbw" maskUnits="userSpaceOnUse" x="0" y="0" width="100" height="100">
<rect width="100" height="100" fill="#fff"/>
<polygon points="18,88 54,22 92,88" fill="#000" stroke="#000" stroke-width="3" stroke-linejoin="miter"/>
<polyline points="37.2,58 33,55 29,60 25,55 22.8,58" fill="none" stroke="#000" stroke-width="2.4"/>
</mask>
<mask id="kfw" maskUnits="userSpaceOnUse" x="0" y="0" width="100" height="100">
<rect width="100" height="100" fill="#fff"/>
<polyline points="65.6,42 60,38 55,44 49,38 43.1,42" fill="none" stroke="#000" stroke-width="2.4"/>
</mask>
</defs>
<path d="M4,20 Q14,10 26,15" fill="none" stroke="#FFFFFF" stroke-width="2.2" stroke-linecap="round"/>
<path d="M4,30 Q15,21 28,25" fill="none" stroke="#FFFFFF" stroke-width="2.2" stroke-linecap="round"/>
<polygon points="6,88 30,46 54,88" fill="#FFFFFF" mask="url(#kbw)"/>
<polygon points="18,88 54,22 92,88" fill="#FFFFFF" mask="url(#kfw)"/>
<line x1="54" y1="22" x2="54" y2="13" stroke="#FFFFFF" stroke-width="2.5"/>
<rect x="49.5" y="3" width="9" height="9" fill="#FFFFFF"/>
<line x1="2" y1="89" x2="98" y2="89" stroke="#FFFFFF" stroke-width="3"/>
</svg>
